<svg width="589" height="314" viewBox="0 0 589 314" fill="none" xmlns="http://www.w3.org/2000/svg">
<path d="M587.881 276.856L549.292 70.2364C548.631 66.8304 546.834 63.7497 544.193 61.4995C541.552 59.2493 538.225 57.9632 534.758 57.8519C534.445 57.8449 534.133 57.8449 533.821 57.8519L507.534 58.7949L504.705 58.8989L491.585 59.3704L488.756 59.4675L480.317 59.7726L310.151 65.8817C309.894 65.8956 309.631 65.8956 309.374 65.8886L271.243 65.0912L257.132 64.8L256.681 64.793L246.266 64.5712L155.511 62.685L131.449 62.1789L119.585 61.9362L116.742 61.8737L103.213 61.5964L100.377 61.534L86.5362 61.2497L83.7001 61.1873L68.4933 60.8683L66.1079 60.8197L52.5446 60.5354L50.4019 60.4938H50.09C46.4892 60.5085 43.0095 61.7957 40.2661 64.128C37.5227 66.4603 35.6922 69.6874 35.0982 73.2389L0.198179 287.645C-0.156234 289.817 -0.0342358 292.04 0.555723 294.16C1.14568 296.28 2.18948 298.247 3.61484 299.923C5.04019 301.6 6.81303 302.947 8.81051 303.87C10.808 304.794 12.9824 305.272 15.183 305.272H215.61C218.56 305.28 221.431 306.227 223.806 307.976L227.606 310.792C230.225 312.719 233.389 313.764 236.641 313.773H354.759C356.755 313.778 358.732 313.388 360.575 312.623C362.419 311.859 364.093 310.737 365.5 309.322C367.906 306.916 371.117 305.486 374.514 305.307L573.749 294.808C575.909 294.695 578.021 294.122 579.941 293.127C581.862 292.131 583.548 290.737 584.886 289.037C586.225 287.337 587.184 285.371 587.7 283.27C588.217 281.169 588.278 278.982 587.881 276.856Z" fill="#CCCCCC"/>
<path d="M556.302 271.239L534.792 58.1294C534.785 58.0393 534.771 57.9422 534.758 57.852C534.355 54.447 532.674 51.3219 530.056 49.108L483.784 10.5607C481.772 8.87163 479.271 7.87267 476.649 7.71067C455.479 6.35155 347.853 1.31729 308.126 35.8012C306.921 36.8502 305.5 37.6222 303.965 38.0631C302.429 38.504 300.815 38.6029 299.237 38.353C297.655 38.0964 296.147 37.5013 294.816 36.6086C293.486 35.7158 292.363 34.5463 291.526 33.1801C288.148 27.9151 283.722 23.402 278.524 19.9218C276.19 18.3013 273.759 16.8261 271.243 15.5047C269.017 14.3328 266.597 13.1956 263.962 12.1C261.695 11.1569 259.275 10.2486 256.681 9.38179C243.236 4.88843 225.262 1.53226 201.242 0.408923C191.278 -0.0626073 180.446 -0.125 169.054 0.21477C158.652 0.51988 147.599 1.15087 136.206 2.09392L136.04 2.10086L58.9519 49.1634C57.2238 50.2409 55.7632 51.6973 54.6808 53.4224C53.5985 55.1475 52.9226 57.0962 52.7043 59.121L52.5447 60.5356L28.0669 279.248C27.8555 281.106 28.0263 282.988 28.5689 284.778C29.1115 286.568 30.0143 288.228 31.222 289.656C32.3976 291.048 33.8614 292.169 35.5124 292.94C37.1634 293.711 38.9622 294.114 40.7843 294.122H230.727C233.252 294.135 235.699 295.002 237.668 296.583L245.961 303.227C248.122 304.962 250.797 305.932 253.568 305.986L337.084 307.352H337.285C339.394 307.349 341.467 306.809 343.311 305.785L359.419 296.84C360.888 296.022 362.524 295.548 364.203 295.453L544.216 285.946C545.97 285.853 547.685 285.391 549.249 284.59C550.813 283.79 552.191 282.669 553.293 281.3C554.438 279.907 555.294 278.3 555.811 276.573C556.327 274.845 556.494 273.032 556.302 271.239Z" fill="#E6E6E6"/>
<path d="M493.469 232.807L490.949 199.637L480.319 59.7766L478.739 39.0866C478.339 33.6522 475.93 28.5614 471.981 24.8065C468.032 21.0517 462.826 18.9021 457.379 18.7766C418.429 17.7766 347.899 19.5366 313.289 42.7266C309.439 45.3434 304.77 46.4717 300.151 45.9014C295.531 45.3311 291.276 43.101 288.179 39.6266C283.39 34.3691 277.64 30.0754 271.239 26.9766C266.554 24.6273 261.685 22.6673 256.679 21.1166C242.029 16.4366 223.542 13.5933 201.219 12.5866L148.239 12.2766H148.149C144.479 12.28 140.948 13.6806 138.273 16.1936C135.598 18.7067 133.981 22.1438 133.749 25.8066L131.449 62.1766L121.399 221.677C121.211 224.648 121.629 227.627 122.627 230.431C123.625 233.236 125.183 235.809 127.206 237.994C129.228 240.179 131.674 241.929 134.394 243.14C137.114 244.351 140.052 244.996 143.029 245.037C231.959 246.357 270.809 265.127 287.749 280.627C291.351 283.931 295.952 285.94 300.825 286.335C305.697 286.73 310.562 285.488 314.649 282.807C345.399 262.667 396.519 257.067 437.209 256.197C449.669 255.937 461.149 256.107 470.769 256.447C473.861 256.558 476.941 256.015 479.809 254.854C482.676 253.692 485.266 251.938 487.409 249.707C489.552 247.475 491.2 244.816 492.244 241.904C493.288 238.991 493.705 235.891 493.469 232.807Z" fill="white"/>
<path d="M51.9829 279.07C51.9497 279.07 51.9151 279.068 51.8819 279.065C51.6964 279.052 51.5153 279.003 51.349 278.92C51.1826 278.837 51.0342 278.722 50.9123 278.581C50.7904 278.441 50.6974 278.278 50.6385 278.102C50.5797 277.925 50.5561 277.739 50.5692 277.554L65.8703 61.501C65.8812 61.3148 65.9293 61.1326 66.0116 60.9652C66.094 60.7978 66.2089 60.6486 66.3498 60.5263C66.4907 60.4039 66.6546 60.3111 66.8319 60.253C67.0092 60.195 67.1963 60.173 67.3822 60.1883C67.5677 60.2014 67.7487 60.2508 67.9151 60.3339C68.0814 60.4169 68.2298 60.5319 68.3517 60.6723C68.4736 60.8127 68.5667 60.9757 68.6255 61.1521C68.6844 61.3285 68.7079 61.5147 68.6948 61.7002L53.3938 277.753C53.3688 278.11 53.2094 278.445 52.9476 278.689C52.6857 278.933 52.341 279.069 51.9829 279.07Z" fill="white"/>
<path d="M70.3962 270.571C70.363 270.571 70.3284 270.57 70.2952 270.567C70.1097 270.554 69.9286 270.504 69.7623 270.421C69.5959 270.338 69.4476 270.223 69.3257 270.083C69.2038 269.942 69.1107 269.779 69.0519 269.603C68.993 269.427 68.9694 269.24 68.9825 269.055L84.2836 53.0024C84.2945 52.8162 84.3426 52.634 84.4249 52.4667C84.5073 52.2993 84.6222 52.15 84.7631 52.0277C84.904 51.9054 85.0679 51.8125 85.2452 51.7545C85.4225 51.6965 85.6096 51.6745 85.7955 51.6898C85.981 51.7028 86.1621 51.7523 86.3284 51.8353C86.4948 51.9184 86.6431 52.0334 86.765 52.1738C86.8869 52.3142 86.98 52.4772 87.0388 52.6536C87.0977 52.83 87.1213 53.0162 87.1082 53.2016L71.8071 269.254C71.7822 269.611 71.6227 269.946 71.3609 270.19C71.0991 270.435 70.7543 270.571 70.3962 270.571Z" fill="white"/>
<path d="M87.3933 266.322C87.3601 266.322 87.3255 266.32 87.2923 266.318C87.1068 266.305 86.9257 266.255 86.7594 266.172C86.593 266.089 86.4446 265.974 86.3227 265.834C86.2008 265.693 86.1078 265.53 86.0489 265.354C85.99 265.177 85.9665 264.991 85.9796 264.806L101.281 48.7532C101.292 48.567 101.34 48.3848 101.422 48.2174C101.504 48.05 101.619 47.9008 101.76 47.7784C101.901 47.6561 102.065 47.5633 102.242 47.5052C102.42 47.4472 102.607 47.4252 102.793 47.4405C102.978 47.4536 103.159 47.5031 103.325 47.5861C103.492 47.6691 103.64 47.7841 103.762 47.9245C103.884 48.0649 103.977 48.2279 104.036 48.4043C104.095 48.5807 104.118 48.7669 104.105 48.9524L88.8042 265.005C88.7792 265.362 88.6198 265.697 88.358 265.941C88.0961 266.185 87.7514 266.321 87.3933 266.322Z" fill="white"/>
<path d="M104.39 257.823C104.357 257.823 104.322 257.822 104.289 257.819C104.104 257.806 103.923 257.757 103.756 257.674C103.59 257.59 103.441 257.475 103.32 257.335C103.198 257.195 103.105 257.032 103.046 256.855C102.987 256.679 102.963 256.493 102.976 256.307L118.278 40.2547C118.288 40.0684 118.336 39.8863 118.419 39.7189C118.501 39.5515 118.616 39.4022 118.757 39.2799C118.898 39.1576 119.062 39.0647 119.239 39.0067C119.416 38.9487 119.603 38.9267 119.789 38.942C119.975 38.955 120.156 39.0045 120.322 39.0876C120.489 39.1706 120.637 39.2856 120.759 39.426C120.881 39.5664 120.974 39.7294 121.033 39.9058C121.092 40.0822 121.115 40.2684 121.102 40.4539L105.801 256.506C105.776 256.864 105.617 257.198 105.355 257.443C105.093 257.687 104.748 257.823 104.39 257.823Z" fill="white"/>
<path d="M539.226 280.486C539.259 280.486 539.293 280.484 539.327 280.482C539.512 280.469 539.693 280.419 539.859 280.336C540.026 280.253 540.174 280.138 540.296 279.998C540.418 279.857 540.511 279.694 540.57 279.518C540.629 279.341 540.652 279.155 540.639 278.97L525.338 62.9173C525.327 62.731 525.279 62.5489 525.197 62.3815C525.114 62.2141 524.999 62.0648 524.859 61.9425C524.718 61.8202 524.554 61.7273 524.377 61.6693C524.199 61.6113 524.012 61.5893 523.826 61.6046C523.641 61.6176 523.46 61.6671 523.293 61.7501C523.127 61.8332 522.979 61.9482 522.857 62.0886C522.735 62.229 522.642 62.392 522.583 62.5684C522.524 62.7447 522.5 62.931 522.514 63.1164L537.815 279.169C537.84 279.526 537.999 279.861 538.261 280.105C538.523 280.35 538.867 280.486 539.226 280.486Z" fill="white"/>
<path d="M520.812 267.738C520.845 267.738 520.88 267.737 520.913 267.734C521.099 267.721 521.28 267.672 521.446 267.589C521.612 267.506 521.761 267.391 521.883 267.25C522.005 267.11 522.098 266.947 522.157 266.77C522.215 266.594 522.239 266.408 522.226 266.222L506.925 50.1697C506.914 49.9835 506.866 49.8013 506.783 49.6339C506.701 49.4665 506.586 49.3173 506.445 49.195C506.304 49.0726 506.14 48.9798 505.963 48.9217C505.786 48.8637 505.599 48.8417 505.413 48.857C505.227 48.8701 505.046 48.9195 504.88 49.0026C504.714 49.0856 504.565 49.2006 504.443 49.341C504.321 49.4814 504.228 49.6444 504.169 49.8208C504.111 49.9972 504.087 50.1834 504.1 50.3689L519.401 266.421C519.426 266.779 519.586 267.113 519.848 267.358C520.109 267.602 520.454 267.738 520.812 267.738Z" fill="white"/>
<path d="M503.815 253.574C503.849 253.574 503.883 253.573 503.916 253.57C504.102 253.557 504.283 253.507 504.449 253.424C504.616 253.341 504.764 253.226 504.886 253.086C505.008 252.945 505.101 252.782 505.16 252.606C505.219 252.43 505.242 252.243 505.229 252.058L489.928 36.0054C489.917 35.8192 489.869 35.637 489.787 35.4696C489.704 35.3022 489.589 35.153 489.448 35.0307C489.308 34.9084 489.144 34.8155 488.966 34.7574C488.789 34.6994 488.602 34.6774 488.416 34.6927C488.231 34.7058 488.049 34.7552 487.883 34.8383C487.717 34.9213 487.568 35.0363 487.447 35.1767C487.325 35.3171 487.232 35.4802 487.173 35.6565C487.114 35.8329 487.09 36.0191 487.103 36.2046L502.404 252.257C502.429 252.614 502.589 252.949 502.851 253.193C503.112 253.438 503.457 253.574 503.815 253.574Z" fill="white"/>
<path d="M156.214 61.083C188.141 50.8968 223.76 53.5936 254.007 67.9439C262.637 72.0172 270.787 77.0372 278.308 82.9115C280.436 84.5813 283.463 81.5945 281.313 79.9069C253.532 58.3592 218.626 48.1231 183.608 51.2551C173.92 52.122 164.355 54.0436 155.084 56.9856C152.489 57.8136 153.598 61.9176 156.214 61.083Z" fill="#3F3D56"/>
<path d="M331.898 84.56C361.582 68.9578 397.128 65.5555 429.402 74.412C438.603 76.9308 447.495 80.4663 455.914 84.9531C458.326 86.2401 460.475 82.5733 458.059 81.2841C427.299 64.8708 390.375 61.0925 356.784 70.2419C347.414 72.7988 338.35 76.3696 329.753 80.8909C327.332 82.1637 329.477 85.8325 331.898 84.56Z" fill="#3F3D56"/>
<path d="M331.898 112.888C361.582 97.2859 397.128 93.8836 429.402 102.74C438.603 105.259 447.495 108.794 455.914 113.281C458.326 114.568 460.475 110.901 458.059 109.612C427.299 93.1989 390.375 89.4206 356.784 98.57C347.414 101.127 338.35 104.698 329.753 109.219C327.332 110.492 329.477 114.161 331.898 112.888Z" fill="#3F3D56"/>
<path d="M328.206 135.324C357.89 119.722 393.435 116.32 425.71 125.176C434.911 127.695 443.803 131.231 452.222 135.718C454.634 137.004 456.783 133.338 454.366 132.048C423.607 115.635 386.682 111.857 353.092 121.006C343.722 123.563 334.658 127.134 326.061 131.655C323.64 132.928 325.785 136.597 328.206 135.324Z" fill="#3F3D56"/>
<path d="M328.206 163.653C357.89 148.05 393.435 144.648 425.71 153.504C434.911 156.023 443.803 159.559 452.222 164.046C454.634 165.333 456.783 161.666 454.366 160.377C423.607 143.963 386.682 140.185 353.092 149.334C343.722 151.891 334.658 155.462 326.061 159.983C323.64 161.256 325.785 164.925 328.206 163.653Z" fill="#3F3D56"/>
<path d="M332.206 190.324C361.89 174.722 397.435 171.32 429.71 180.176C438.911 182.695 447.803 186.231 456.222 190.718C458.634 192.004 460.783 188.338 458.366 187.048C427.607 170.635 390.682 166.857 357.092 176.006C347.722 178.563 338.658 182.134 330.061 186.655C327.64 187.928 329.785 191.597 332.206 190.324Z" fill="#3F3D56"/>
<path d="M332.206 218.653C361.89 203.05 397.435 199.648 429.71 208.504C438.911 211.023 447.803 214.559 456.222 219.046C458.634 220.333 460.783 216.666 458.366 215.377C427.607 198.963 390.682 195.185 357.092 204.334C347.722 206.891 338.658 210.462 330.061 214.983C327.64 216.256 329.785 219.925 332.206 218.653Z" fill="#3F3D56"/>
<path d="M350.6 139.925L350.027 140.339C350.221 140.194 350.422 140.058 350.63 139.929L350.6 139.925Z" fill="white"/>
<path d="M156.214 89.4112C188.141 79.2249 223.76 81.9217 254.007 96.272C262.637 100.345 270.787 105.365 278.308 111.24C280.436 112.909 283.463 109.923 281.313 108.235C253.532 86.6873 218.626 76.4512 183.608 79.5832C173.92 80.4502 164.355 82.3717 155.084 85.3137C152.489 86.1417 153.598 90.2457 156.214 89.4112Z" fill="#3F3D56"/>
<path d="M156.214 117.74C188.141 107.553 223.76 110.25 254.007 124.6C262.637 128.674 270.787 133.694 278.308 139.568C280.436 141.238 283.463 138.251 281.313 136.563C253.532 115.016 218.626 104.78 183.608 107.912C173.92 108.779 164.355 110.7 155.084 113.642C152.489 114.47 153.598 118.574 156.214 117.74Z" fill="#3F3D56"/>
<path d="M156.214 146.068C188.141 135.881 223.76 138.578 254.007 152.929C262.637 157.002 270.787 162.022 278.308 167.896C280.436 169.566 283.463 166.579 281.313 164.892C253.532 143.344 218.626 133.108 183.608 136.24C173.92 137.107 164.355 139.028 155.084 141.97C152.489 142.798 153.598 146.902 156.214 146.068Z" fill="#3F3D56"/>
<path d="M156.214 174.396C188.141 164.21 223.76 166.907 254.007 181.257C262.637 185.33 270.787 190.35 278.308 196.225C280.436 197.894 283.463 194.908 281.313 193.22C253.532 171.672 218.626 161.436 183.608 164.568C173.92 165.435 164.355 167.357 155.084 170.299C152.489 171.127 153.598 175.231 156.214 174.396Z" fill="#3F3D56"/>
<path d="M156.214 202.724C188.141 192.538 223.76 195.235 254.007 209.585C262.637 213.658 270.787 218.678 278.308 224.553C280.436 226.222 283.463 223.236 281.313 221.548C253.532 200 218.626 189.764 183.608 192.896C173.92 193.763 164.355 195.685 155.084 198.627C152.489 199.455 153.598 203.559 156.214 202.724Z" fill="#3F3D56"/>
<path d="M301.762 42.7285H299.682V299.558H301.762V42.7285Z" fill="#E6E6E6"/>
<path d="M487.419 249.697C485.274 251.929 482.683 253.684 479.814 254.847C476.945 256.01 473.863 256.555 470.769 256.447C461.149 256.107 449.669 255.937 437.209 256.197L437.139 256.137L491.139 186.137L493.469 232.807C493.702 235.889 493.284 238.986 492.242 241.896C491.199 244.806 489.556 247.464 487.419 249.697Z" fill="#F2F2F2"/>
</svg>
