<svg width="563" height="282" viewBox="0 0 563 282" fill="none" xmlns="http://www.w3.org/2000/svg">
<path d="M563 15H0V282H563V15Z" fill="#E6E6E6"/>
<path d="M546.943 38.3301H16.3333V261.144H546.943V38.3301Z" fill="white"/>
<path d="M563 0H0V24H563V0Z" fill="#A3A3A3"/>
<path d="M17.7674 15.4907C20.2149 15.4907 22.1989 13.5066 22.1989 11.0592C22.1989 8.61173 20.2149 6.62769 17.7674 6.62769C15.32 6.62769 13.3359 8.61173 13.3359 11.0592C13.3359 13.5066 15.32 15.4907 17.7674 15.4907Z" fill="white"/>
<path d="M34.588 15.4907C37.0354 15.4907 39.0195 13.5066 39.0195 11.0592C39.0195 8.61173 37.0354 6.62769 34.588 6.62769C32.1405 6.62769 30.1565 8.61173 30.1565 11.0592C30.1565 13.5066 32.1405 15.4907 34.588 15.4907Z" fill="white"/>
<path d="M51.4093 15.4907C53.8567 15.4907 55.8408 13.5066 55.8408 11.0592C55.8408 8.61173 53.8567 6.62769 51.4093 6.62769C48.9618 6.62769 46.9778 8.61173 46.9778 11.0592C46.9778 13.5066 48.9618 15.4907 51.4093 15.4907Z" fill="white"/>
<path d="M253.661 91.2078C253.092 91.2078 252.546 91.434 252.143 91.8366C251.741 92.2392 251.514 92.7853 251.514 93.3546C251.514 93.924 251.741 94.4701 252.143 94.8727C252.546 95.2753 253.092 95.5015 253.661 95.5015H371.465C372.035 95.5015 372.581 95.2753 372.983 94.8727C373.386 94.4701 373.612 93.924 373.612 93.3546C373.612 92.7853 373.386 92.2392 372.983 91.8366C372.581 91.434 372.035 91.2078 371.465 91.2078H253.661Z" fill="#E6E6E6"/>
<path d="M253.661 104.09C253.092 104.092 252.548 104.318 252.146 104.721C251.744 105.123 251.519 105.669 251.519 106.237C251.519 106.806 251.744 107.351 252.146 107.754C252.548 108.156 253.092 108.383 253.661 108.384H313.802C314.371 108.383 314.916 108.156 315.317 107.754C315.719 107.351 315.945 106.806 315.945 106.237C315.945 105.669 315.719 105.123 315.317 104.721C314.916 104.318 314.371 104.092 313.802 104.09H253.661Z" fill="#E6E6E6"/>
<path d="M250.697 166.444C250.127 166.444 249.581 166.67 249.179 167.072C248.776 167.475 248.55 168.021 248.55 168.59C248.55 169.16 248.776 169.706 249.179 170.109C249.581 170.511 250.127 170.737 250.697 170.737H471.58C472.149 170.737 472.695 170.511 473.098 170.109C473.5 169.706 473.727 169.16 473.727 168.59C473.727 168.021 473.5 167.475 473.098 167.072C472.695 166.67 472.149 166.444 471.58 166.444H250.697Z" fill="#E6E6E6"/>
<path d="M250.697 179.326C250.128 179.327 249.583 179.554 249.182 179.957C248.78 180.359 248.554 180.904 248.554 181.473C248.554 182.042 248.78 182.587 249.182 182.99C249.583 183.392 250.128 183.619 250.697 183.62H413.917C414.486 183.619 415.03 183.392 415.432 182.99C415.834 182.587 416.059 182.042 416.059 181.473C416.059 180.904 415.834 180.359 415.432 179.957C415.03 179.554 414.486 179.327 413.917 179.326H250.697Z" fill="#E6E6E6"/>
<path d="M250.697 191.917C250.128 191.918 249.583 192.145 249.182 192.548C248.78 192.95 248.554 193.496 248.554 194.064C248.554 194.633 248.78 195.178 249.182 195.581C249.583 195.983 250.128 196.21 250.697 196.211H471.58C472.148 196.21 472.693 195.983 473.095 195.581C473.496 195.178 473.722 194.633 473.722 194.064C473.722 193.496 473.496 192.95 473.095 192.548C472.693 192.145 472.148 191.918 471.58 191.917H250.697Z" fill="#E6E6E6"/>
<path d="M250.697 204.8C250.128 204.801 249.583 205.028 249.182 205.43C248.78 205.833 248.554 206.378 248.554 206.947C248.554 207.515 248.78 208.061 249.182 208.463C249.583 208.866 250.128 209.092 250.697 209.094H413.917C414.486 209.092 415.03 208.866 415.432 208.463C415.834 208.061 416.059 207.515 416.059 206.947C416.059 206.378 415.834 205.833 415.432 205.43C415.03 205.028 414.486 204.801 413.917 204.8H250.697Z" fill="#E6E6E6"/>
<path d="M135.218 175.157C145.542 175.157 153.912 166.787 153.912 156.462C153.912 146.138 145.542 137.768 135.218 137.768C124.893 137.768 116.523 146.138 116.523 156.462C116.523 166.787 124.893 175.157 135.218 175.157Z" fill="#FFEFDD"/>
<path d="M129.298 141.507C129.298 141.507 138.022 143.844 142.54 144.778C147.057 145.713 146.59 143.065 146.59 143.065C146.59 143.065 152.51 143.844 152.198 143.22C151.887 142.597 154.691 139.326 151.419 135.587C148.148 131.848 149.083 129.044 149.083 129.044H146.279L145.5 127.953H141.138C141.138 127.953 136.315 123.724 127.747 124.971C119.179 126.217 109.046 129.511 108.111 134.652C107.984 135.349 107.817 136.124 107.623 136.942C105.281 146.834 110.259 156.089 115.422 164.845C116.691 166.997 122.829 171.689 122.672 168.47C122.515 165.25 117.147 158.02 120.885 157.553C124.624 157.085 131.012 147.582 129.298 141.507Z" fill="#2F2E41"/>
<path d="M124.613 216.898C121.004 216.609 117.425 216.021 113.914 215.14L114.11 211.412L115.747 181.77L115.762 181.542H148.693L153.861 208.835L154.557 212.518C153.194 213.048 151.815 213.548 150.406 213.988C150.39 213.988 150.39 214.003 150.375 214.003C148.42 214.609 146.435 215.14 144.434 215.579C141.774 216.153 139.082 216.568 136.372 216.822C134.277 217.03 132.174 217.131 130.068 217.125C128.25 217.125 126.416 217.049 124.613 216.898Z" fill="#A3A3A3"/>
<path d="M103.442 211.624C102.078 211.033 100.759 210.396 99.4563 209.73L98.8954 209.442C98.5166 209.245 98.1229 209.032 97.744 208.82C97.2283 208.532 96.7281 208.244 96.2434 207.956C95.7735 207.684 95.2888 207.396 94.819 207.108C94.7886 207.093 94.7739 207.077 94.7435 207.077C93.1067 206.032 91.5003 204.956 89.9545 203.789C89.697 203.592 89.4393 203.395 89.1813 203.198L88.9089 198.834L89.3026 198.591L115.747 181.77L116.111 181.542L116.141 181.527L119.869 181.542V195.424C121.976 198.47 123.4 204.85 124.279 213.2C124.401 214.397 124.506 215.625 124.613 216.898C121.004 216.609 117.425 216.021 113.914 215.14C113.535 215.064 113.171 214.973 112.792 214.867C110.584 214.289 108.408 213.591 106.276 212.776C105.624 212.533 104.988 212.275 104.351 212.018L104.291 211.987C104.017 211.866 103.715 211.745 103.442 211.624Z" fill="#2F2E41"/>
<path d="M97.7438 208.82C97.2281 208.532 96.7279 208.244 96.2432 207.956C95.7733 207.684 95.2887 207.396 94.8188 207.108C94.7884 207.093 94.7737 207.077 94.7433 207.077C93.1065 206.032 91.5001 204.956 89.9543 203.789C89.6968 203.592 89.4391 203.395 89.1811 203.198C89.0605 203.092 88.939 203.001 88.8022 202.895C87.8328 202.152 86.8931 201.379 85.9837 200.561C85.9386 200.531 85.9082 200.485 85.8623 200.455C86.7806 199.749 87.8102 199.201 88.9088 198.833L89.9847 199.152L97.6529 201.455L97.6981 204.562L97.7438 208.82Z" fill="#2F2E41"/>
<path d="M162.317 208.866C161.862 209.108 161.407 209.351 160.953 209.578C160.847 209.639 160.756 209.684 160.665 209.729C160.058 210.033 159.468 210.336 158.862 210.624C158.846 210.639 158.816 210.639 158.816 210.654C158.786 210.669 158.741 210.684 158.71 210.699C157.347 211.351 155.967 211.957 154.558 212.518C153.194 213.048 151.815 213.548 150.406 213.988C150.39 213.988 150.39 214.003 150.375 214.003C148.42 214.609 146.435 215.14 144.434 215.579C144.412 214.334 144.575 213.093 144.92 211.897L144.934 211.684L146.238 190.589L144.495 181.542L149.496 180.8L177.001 195.605C177.001 195.605 173.97 198.636 161.529 205.092C160.429 205.663 162.044 207.562 162.317 208.866Z" fill="#2F2E41"/>
<path d="M136.039 213.185C134.069 213.367 132.069 213.458 130.069 213.458C128.128 213.458 126.204 213.382 124.279 213.2C124.4 214.397 124.506 215.625 124.613 216.898C126.416 217.049 128.25 217.125 130.069 217.125C132.174 217.131 134.278 217.03 136.372 216.822C139.082 216.568 141.774 216.153 144.434 215.579C144.412 214.334 144.575 213.093 144.92 211.897L144.934 211.684C142.009 212.397 139.036 212.898 136.039 213.185ZM193.307 128.138C190.105 118.939 184.934 110.549 178.157 103.554C171.379 96.5587 163.157 91.1259 154.064 87.6346C144.97 84.1433 135.225 82.6775 125.507 83.3394C115.789 84.0013 106.333 86.775 97.797 91.4671C89.2613 96.1591 81.8517 102.657 76.0851 110.507C70.3184 118.356 66.3334 127.37 64.4079 136.918C62.4825 146.466 62.663 156.319 64.9368 165.791C67.2106 175.262 71.523 184.123 77.5733 191.756C78.1793 192.514 78.8009 193.272 79.4373 193.999C79.498 194.06 79.5283 194.105 79.5735 194.151C81.138 195.955 82.8025 197.67 84.5593 199.288C84.984 199.682 85.4229 200.076 85.8624 200.455C85.9083 200.485 85.9386 200.531 85.9837 200.561C86.8932 201.379 87.8329 202.152 88.8023 202.895C88.9392 203.001 89.0605 203.092 89.1811 203.198C89.4394 203.395 89.6971 203.592 89.9544 203.789C91.5002 204.956 93.1066 206.032 94.7434 207.078C94.7737 207.078 94.7885 207.093 94.8189 207.108C95.2888 207.396 95.7734 207.684 96.2433 207.956C96.7287 208.244 97.2289 208.532 97.7439 208.82C98.1228 209.032 98.5164 209.245 98.8953 209.442L99.4562 209.73C100.759 210.396 102.078 211.033 103.442 211.624C103.715 211.745 104.017 211.866 104.29 211.988L104.351 212.018C104.987 212.275 105.624 212.533 106.276 212.776C108.408 213.591 110.583 214.289 112.792 214.867C113.171 214.973 113.535 215.064 113.914 215.14C117.425 216.021 121.004 216.609 124.613 216.898C126.416 217.049 128.25 217.125 130.069 217.125C132.174 217.131 134.278 217.03 136.372 216.822C139.082 216.568 141.774 216.153 144.434 215.579C146.435 215.14 148.42 214.609 150.375 214.003C150.39 214.003 150.39 213.988 150.406 213.988C151.815 213.549 153.194 213.048 154.558 212.518C155.967 211.957 157.346 211.351 158.71 210.7C158.741 210.684 158.786 210.669 158.816 210.654C158.816 210.639 158.846 210.639 158.862 210.624C159.468 210.336 160.058 210.033 160.665 209.73C160.756 209.684 160.846 209.639 160.953 209.578C161.407 209.351 161.862 209.108 162.317 208.866C162.347 208.851 162.362 208.835 162.392 208.82C163.59 208.154 164.772 207.456 165.939 206.714C166.257 206.517 166.575 206.32 166.893 206.093C167.363 205.805 167.818 205.486 168.257 205.168C168.848 204.759 169.439 204.335 170.015 203.895C170.207 203.772 170.389 203.635 170.561 203.486C171.97 202.425 173.334 201.304 174.637 200.122C184.52 191.315 191.569 179.776 194.893 166.962C198.216 154.149 197.664 140.638 193.307 128.138ZM173.501 196.212C171.86 197.755 170.14 199.212 168.348 200.576C167.955 200.879 167.545 201.182 167.136 201.455C166.742 201.758 166.348 202.046 165.939 202.319C165.59 202.562 165.242 202.804 164.878 203.031C164.848 203.062 164.802 203.077 164.772 203.107C164.514 203.289 164.242 203.456 163.984 203.622C163.18 204.122 162.347 204.623 161.529 205.092C161.332 205.198 161.15 205.32 160.953 205.426C160.847 205.486 160.741 205.547 160.619 205.608C160.165 205.865 159.71 206.093 159.256 206.335C159.195 206.38 159.119 206.396 159.059 206.441C159.036 206.445 159.015 206.455 158.998 206.471C158.68 206.638 158.362 206.79 158.044 206.941C157.771 207.078 157.513 207.214 157.24 207.335C156.134 207.866 154.997 208.366 153.861 208.835C152.663 209.32 151.451 209.76 150.224 210.169C149.92 210.275 149.602 210.396 149.284 210.487C147.844 210.942 146.405 211.351 144.934 211.684C142.009 212.397 139.036 212.898 136.039 213.185C134.069 213.367 132.069 213.458 130.069 213.458C128.128 213.458 126.204 213.382 124.279 213.2C120.846 212.886 117.445 212.288 114.111 211.412C113.989 211.381 113.853 211.351 113.732 211.321C110.997 210.608 108.317 209.696 105.715 208.593C105.579 208.532 105.427 208.487 105.306 208.426C105.154 208.366 105.018 208.32 104.897 208.259C104.745 208.199 104.609 208.138 104.473 208.078C103.336 207.578 102.23 207.032 101.123 206.471L100.608 206.199C99.6228 205.683 98.6527 205.153 97.6982 204.562C97.3652 204.38 97.0167 204.168 96.683 203.956C96.3041 203.728 95.9253 203.486 95.5612 203.243C95.4709 203.183 95.3801 203.122 95.2889 203.062C94.4401 202.486 93.5766 201.91 92.7582 201.289C92.1825 200.864 91.6216 200.455 91.0607 200.016C90.6966 199.743 90.3334 199.455 89.9848 199.152C89.7577 198.985 89.5305 198.788 89.3026 198.591C88.9999 198.333 88.6966 198.076 88.3939 197.803C87.924 197.424 87.4845 197 87.0597 196.606C85.3534 195.033 83.7393 193.364 82.2256 191.605C81.7106 191.029 81.2252 190.453 80.756 189.847C80.6466 189.728 80.5452 189.601 80.4526 189.468C72.8232 179.837 68.1618 168.193 67.0371 155.958C65.9124 143.723 68.3729 131.425 74.1186 120.564C79.8643 109.703 88.6467 100.749 99.3944 94.795C110.142 88.8406 122.39 86.1429 134.645 87.0311C146.9 87.9193 158.631 92.3549 168.408 99.7969C178.185 107.239 185.584 117.365 189.704 128.941C193.824 140.517 194.485 153.041 191.608 164.986C188.731 176.932 182.439 187.781 173.501 196.212Z" fill="#3F3D56"/>
</svg>
