<svg width="759" height="758" viewBox="0 0 759 758" fill="none" xmlns="http://www.w3.org/2000/svg">
<path d="M2.37354 2.37364V85.6608V169.338V253.018V336.698V420.378V504.055V587.737V671.415V755.094L83.4888 754.979L167.168 754.86L250.846 754.741L334.526 754.622L418.208 754.503L501.887 754.383L585.565 754.264L669.245 754.147L752.924 754.028L756.627 754.022V670.344V586.664L752.213 586.671L668.534 586.79L645.809 586.823V645.809H585.104H501.424H417.745H334.063H250.383H166.704H110.192V587.583V503.903V420.223V336.546V252.864V169.186V106.192H164.413H248.092H331.772H415.454H499.133H582.813H645.809V168.424L666.758 168.395L750.436 168.276L756.627 168.268V84.5902V2.37344H749.733H666.053H582.374H498.694H415.014H331.333H247.653H163.973H80.2935L2.37354 2.37364Z" fill="#F7F7F7"/>
<path d="M756.627 391.255H751.383H667.703H645.809H584.024H500.344H416.664H338.254V419.901V503.579V528.747H417.248H500.928H584.608H645.809H647.885V568.116H668.455H752.135H756.627V502.987V419.307V391.255Z" fill="#2A5EE3"/>
</svg>
