<svg width="2413" height="213" viewBox="0 0 2413 213" fill="none" xmlns="http://www.w3.org/2000/svg">
<path d="M174.965 201.332C158.07 208.754 136.928 212.465 111.537 212.465C37.6113 212.465 0.648438 176.088 0.648438 103.334C0.648438 34.4863 38.2461 0.0625 113.441 0.0625C136.391 0.0625 156.898 3.48047 174.965 10.3164V45.4727C156.898 37.6602 137.367 33.7539 116.371 33.7539C66.0781 33.7539 40.9316 56.9473 40.9316 103.334C40.9316 153.627 64.6621 178.773 112.123 178.773C119.154 178.773 127.162 177.602 136.146 175.258V114.32H174.965V201.332ZM233.119 211H193.275L282.191 1.52734H323.939L414.76 211H373.012L349.135 153.871H279.555L292.885 120.18H335.072L302.113 41.5176L233.119 211ZM440.395 211V1.52734H538.539C578.383 1.52734 598.305 17.7871 598.305 50.3066C598.305 74.1348 585.316 91.1758 559.34 101.43C587.074 106.605 600.941 122.475 600.941 149.037C600.941 190.346 579.115 211 535.463 211H440.395ZM533.852 177.309C551.039 177.309 559.633 168.52 559.633 150.941C559.633 129.164 546.791 118.275 521.107 118.275H509.389V93.2266C541.615 87.8555 557.729 74.3789 557.729 52.7969C557.729 41.0781 550.502 35.2188 536.049 35.2188H479.213V177.309H533.852ZM634.047 210.707V1.52734H729.262C772.035 1.52734 793.422 20.2285 793.422 57.6309C793.422 82.9238 776.771 103.871 743.471 120.473L809.828 211H760.902L697.182 119.74V102.016C734.291 95.668 752.846 81.2637 752.846 58.8027C752.846 43.373 744.154 35.6582 726.771 35.6582H673.598V210.707H634.047ZM867.104 1.52734V211H828.285V1.52734H867.104ZM1054.6 1.52734V34.9258H949.721V87.6602H1049.62V122.377H949.281V177.309H1056.65V211H911.195V1.52734H1054.6ZM1131.36 1.52734V177.309H1214.56V211H1092.54V1.52734H1131.36ZM1413.93 203.676C1394.89 209.535 1375.36 212.465 1355.34 212.465C1282.09 212.465 1245.47 176.088 1245.47 103.334C1245.47 34.4863 1282.09 0.0625 1355.34 0.0625C1375.36 0.0625 1394.89 2.99219 1413.93 8.85156V22.0352C1394.89 16.1758 1376.33 13.2461 1358.27 13.2461C1293.32 13.2461 1260.85 43.2754 1260.85 103.334C1260.85 167.299 1293.32 199.281 1358.27 199.281C1376.33 199.281 1394.89 196.352 1413.93 190.492V203.676ZM1456.85 211H1440.44L1535.22 1.52734H1553.53L1648.74 211H1630.43L1599.38 140.688H1505.48L1510.02 127.504H1593.67L1543.42 13.5391L1456.85 211ZM1675.84 203.676V187.562C1697.82 195.375 1722.04 199.281 1748.5 199.281C1792.35 199.281 1814.27 182.68 1814.27 149.477C1814.27 125.062 1800.01 112.855 1771.5 112.855H1728.43C1689.47 112.855 1669.98 95.2773 1669.98 60.1211C1669.98 20.082 1698.55 0.0625 1755.68 0.0625C1779.12 0.0625 1801.82 2.99219 1823.79 8.85156V23.5C1801.82 16.6641 1779.12 13.2461 1755.68 13.2461C1708.8 13.2461 1685.37 28.8711 1685.37 60.1211C1685.37 85.5117 1699.72 98.207 1728.43 98.207H1771.5C1810.27 98.207 1829.65 115.297 1829.65 149.477C1829.65 191.469 1802.6 212.465 1748.5 212.465C1722.04 212.465 1697.82 209.535 1675.84 203.676ZM2004.7 1.52734V14.7109H1932.92V211H1917.54V14.7109H1847.23V1.52734H2004.7ZM2029.75 211V1.52734H2116.18C2154.07 1.52734 2173.01 18.2754 2173.01 51.7715C2173.01 80.7754 2152.46 101.332 2111.34 113.441L2182.09 211H2161L2091.42 113.881V103.48C2134.39 97.1328 2155.87 80.2871 2155.87 52.9434C2155.87 27.748 2141.81 15.1504 2113.69 15.1504H2045.13V211H2029.75ZM2220.33 105.678C2220.33 168.08 2249.77 199.281 2308.66 199.281C2366.47 199.281 2395.38 168.08 2395.38 105.678C2395.38 44.0566 2366.47 13.2461 2308.66 13.2461C2249.77 13.2461 2220.33 44.0566 2220.33 105.678ZM2203.48 106.557C2203.48 35.5605 2238.54 0.0625 2308.66 0.0625C2377.7 0.0625 2412.22 35.5605 2412.22 106.557C2412.22 177.162 2377.7 212.465 2308.66 212.465C2238.54 212.465 2203.48 177.162 2203.48 106.557Z" fill="#0B0B0B"/>
</svg>
